<?xml version="1.0" encoding="utf-8"?>
<!-- Generator: Adobe Illustrator 18.1.1, SVG Export Plug-In . SVG Version: 6.00 Build 0)  -->
<svg version="1.1" id="Capa_1" xmlns="http://www.w3.org/2000/svg" xmlns:xlink="http://www.w3.org/1999/xlink" x="0px" y="0px"
	 viewBox="-136 54.4 247 340" enable-background="new -136 54.4 247 340" xml:space="preserve">
<g>
	<path fill="#E8F409" d="M-1.1,298.2c8.5,0,15.5-6.9,15.5-15.5V154.7L68.7,209c6,6,15.8,6,21.9,0l14.6-14.6c6-6,6-15.8,0-21.9
		L-0.4,67c-3-3-6.9-4.5-10.9-4.5c-3.9,0-7.9,1.5-10.9,4.5l-105.6,105.6c-6,6-6,15.8,0,21.9l14.6,14.6c6,6,15.8,6,21.9,0l54.2-54.3
		v128c0,8.5,6.9,15.5,15.5,15.5L-1.1,298.2z"/>
</g>
<g>
	<path fill="#7ADC7C" d="M-1.1,386.2c8.5,0,15.5-6.9,15.5-15.5V242.7L68.7,297c6,6,15.8,6,21.9,0l14.6-14.6c6-6,6-15.8,0-21.9
		L-0.4,155c-3-3-6.9-4.5-10.9-4.5c-3.9,0-7.9,1.5-10.9,4.5l-105.6,105.6c-6,6-6,15.8,0,21.9l14.6,14.6c6,6,15.8,6,21.9,0l54.2-54.3
		v128c0,8.5,6.9,15.5,15.5,15.5L-1.1,386.2z"/>
</g>
<g>
	<path fill="#51DAD0" d="M68.7,385c6,6,15.8,6,21.9,0l14.6-14.6c6-6,6-15.8,0-21.9L-0.4,243c-3-3-6.9-4.5-10.9-4.5
		c-3.9,0-7.9,1.5-10.9,4.5l-105.6,105.6c-6,6-6,15.8,0,21.9l14.6,14.6c6,6,15.8,6,21.9,0l54.2-54.3v50.7c0,5.5,4.5,10,10,10H4.3
		c5.5,0,10-4.5,10-10v-50.7L68.7,385z"/>
</g>
</svg>
